<?xml version="1.0" encoding="UTF-8" standalone="no"?>
<!DOCTYPE svg PUBLIC "-//W3C//DTD SVG 1.1//EN"
 "http://www.w3.org/Graphics/SVG/1.1/DTD/svg11.dtd">
<!-- Generated by graphviz version 2.42.3 (0)
 -->
<!-- Title: %3 Pages: 1 -->
<svg width="712pt" height="291pt"
 viewBox="0.00 0.00 712.00 291.00" xmlns="http://www.w3.org/2000/svg" xmlns:xlink="http://www.w3.org/1999/xlink">
<g id="graph0" class="graph" transform="scale(1 1) rotate(0) translate(4 287)">
<title>%3</title>
<polygon fill="white" stroke="transparent" points="-4,4 -4,-287 708,-287 708,4 -4,4"/>
<!-- fake0 -->
<g id="node1" class="node">
<title>fake0</title>
</g>
<!-- q0 -->
<g id="node8" class="node">
<title>q0</title>
<ellipse fill="none" stroke="black" cx="351" cy="-192" rx="27" ry="18"/>
<text text-anchor="middle" x="351" y="-188.3" font-family="Times,serif" font-size="14.00">q0</text>
</g>
<!-- fake0&#45;&gt;q0 -->
<g id="edge1" class="edge">
<title>fake0&#45;&gt;q0</title>
<path fill="none" stroke="black" stroke-width="2" d="M351,-246.81C351,-238.79 351,-229.05 351,-220.07"/>
<polygon fill="black" stroke="black" stroke-width="2" points="354.5,-220.03 351,-210.03 347.5,-220.03 354.5,-220.03"/>
</g>
<!-- s2 -->
<g id="node2" class="node">
<title>s2</title>
<ellipse fill="none" stroke="black" cx="387" cy="-105" rx="27" ry="18"/>
<text text-anchor="middle" x="387" y="-101.3" font-family="Times,serif" font-size="14.00">s2</text>
</g>
<!-- dn -->
<g id="node14" class="node">
<title>dn</title>
<ellipse fill="none" stroke="black" cx="531" cy="-18" rx="27" ry="18"/>
<text text-anchor="middle" x="531" y="-14.3" font-family="Times,serif" font-size="14.00">dn</text>
</g>
<!-- s2&#45;&gt;dn -->
<g id="edge24" class="edge">
<title>s2&#45;&gt;dn</title>
<path fill="none" stroke="black" d="M406.72,-92.36C431.6,-77.67 474.56,-52.31 502.88,-35.6"/>
<polygon fill="black" stroke="black" points="504.69,-38.6 511.52,-30.5 501.13,-32.57 504.69,-38.6"/>
<text text-anchor="middle" x="472" y="-57.8" font-family="Times,serif" font-size="14.00">2</text>
</g>
<!-- sa -->
<g id="node3" class="node">
<title>sa</title>
<ellipse fill="none" stroke="black" cx="315" cy="-105" rx="27" ry="18"/>
<text text-anchor="middle" x="315" y="-101.3" font-family="Times,serif" font-size="14.00">sa</text>
</g>
<!-- dw -->
<g id="node10" class="node">
<title>dw</title>
<ellipse fill="none" stroke="black" cx="171" cy="-18" rx="27" ry="18"/>
<text text-anchor="middle" x="171" y="-14.3" font-family="Times,serif" font-size="14.00">dw</text>
</g>
<!-- sa&#45;&gt;dw -->
<g id="edge5" class="edge">
<title>sa&#45;&gt;dw</title>
<path fill="none" stroke="black" d="M295.28,-92.36C270.4,-77.67 227.44,-52.31 199.12,-35.6"/>
<polygon fill="black" stroke="black" points="200.87,-32.57 190.48,-30.5 197.31,-38.6 200.87,-32.57"/>
<text text-anchor="middle" x="255.5" y="-57.8" font-family="Times,serif" font-size="14.00">a</text>
</g>
<!-- sc -->
<g id="node4" class="node">
<title>sc</title>
<ellipse fill="none" stroke="black" cx="99" cy="-105" rx="27" ry="18"/>
<text text-anchor="middle" x="99" y="-101.3" font-family="Times,serif" font-size="14.00">sc</text>
</g>
<!-- sc&#45;&gt;dw -->
<g id="edge7" class="edge">
<title>sc&#45;&gt;dw</title>
<path fill="none" stroke="black" d="M111.87,-88.8C122.93,-75.75 139.04,-56.74 151.65,-41.85"/>
<polygon fill="black" stroke="black" points="154.45,-43.96 158.24,-34.06 149.11,-39.43 154.45,-43.96"/>
<text text-anchor="middle" x="143" y="-57.8" font-family="Times,serif" font-size="14.00">c</text>
</g>
<!-- sd -->
<g id="node5" class="node">
<title>sd</title>
<ellipse fill="none" stroke="black" cx="243" cy="-105" rx="27" ry="18"/>
<text text-anchor="middle" x="243" y="-101.3" font-family="Times,serif" font-size="14.00">sd</text>
</g>
<!-- sd&#45;&gt;dw -->
<g id="edge8" class="edge">
<title>sd&#45;&gt;dw</title>
<path fill="none" stroke="black" d="M230.13,-88.8C219.07,-75.75 202.96,-56.74 190.35,-41.85"/>
<polygon fill="black" stroke="black" points="192.89,-39.43 183.76,-34.06 187.55,-43.96 192.89,-39.43"/>
<text text-anchor="middle" x="216" y="-57.8" font-family="Times,serif" font-size="14.00">d</text>
</g>
<!-- s1 -->
<g id="node6" class="node">
<title>s1</title>
<ellipse fill="none" stroke="black" cx="459" cy="-105" rx="27" ry="18"/>
<text text-anchor="middle" x="459" y="-101.3" font-family="Times,serif" font-size="14.00">s1</text>
</g>
<!-- s1&#45;&gt;dn -->
<g id="edge12" class="edge">
<title>s1&#45;&gt;dn</title>
<path fill="none" stroke="black" d="M471.87,-88.8C482.93,-75.75 499.04,-56.74 511.65,-41.85"/>
<polygon fill="black" stroke="black" points="514.45,-43.96 518.24,-34.06 509.11,-39.43 514.45,-43.96"/>
<text text-anchor="middle" x="504" y="-57.8" font-family="Times,serif" font-size="14.00">1</text>
</g>
<!-- se -->
<g id="node7" class="node">
<title>se</title>
<ellipse fill="none" stroke="black" cx="27" cy="-105" rx="27" ry="18"/>
<text text-anchor="middle" x="27" y="-101.3" font-family="Times,serif" font-size="14.00">se</text>
</g>
<!-- se&#45;&gt;dw -->
<g id="edge9" class="edge">
<title>se&#45;&gt;dw</title>
<path fill="none" stroke="black" d="M46.72,-92.36C71.6,-77.67 114.56,-52.31 142.88,-35.6"/>
<polygon fill="black" stroke="black" points="144.69,-38.6 151.52,-30.5 141.13,-32.57 144.69,-38.6"/>
<text text-anchor="middle" x="112.5" y="-57.8" font-family="Times,serif" font-size="14.00">e</text>
</g>
<!-- q0&#45;&gt;s2 -->
<g id="edge16" class="edge">
<title>q0&#45;&gt;s2</title>
<path fill="none" stroke="black" d="M358.11,-174.21C363.22,-162.14 370.21,-145.64 376.03,-131.89"/>
<polygon fill="black" stroke="black" points="379.35,-133.04 380.02,-122.47 372.9,-130.31 379.35,-133.04"/>
<text text-anchor="middle" x="376" y="-144.8" font-family="Times,serif" font-size="14.00">2</text>
</g>
<!-- q0&#45;&gt;sa -->
<g id="edge15" class="edge">
<title>q0&#45;&gt;sa</title>
<path fill="none" stroke="black" d="M343.89,-174.21C338.78,-162.14 331.79,-145.64 325.97,-131.89"/>
<polygon fill="black" stroke="black" points="329.1,-130.31 321.98,-122.47 322.65,-133.04 329.1,-130.31"/>
<text text-anchor="middle" x="339.5" y="-144.8" font-family="Times,serif" font-size="14.00">a</text>
</g>
<!-- q0&#45;&gt;sc -->
<g id="edge19" class="edge">
<title>q0&#45;&gt;sc</title>
<path fill="none" stroke="black" d="M326.29,-184.52C285.72,-173.6 202.73,-150.05 135,-123 133.17,-122.27 131.3,-121.49 129.43,-120.68"/>
<polygon fill="black" stroke="black" points="130.69,-117.41 120.13,-116.51 127.82,-123.8 130.69,-117.41"/>
<text text-anchor="middle" x="226" y="-144.8" font-family="Times,serif" font-size="14.00">c</text>
</g>
<!-- q0&#45;&gt;sd -->
<g id="edge21" class="edge">
<title>q0&#45;&gt;sd</title>
<path fill="none" stroke="black" d="M334.12,-177.72C316.29,-163.68 287.99,-141.41 267.66,-125.41"/>
<polygon fill="black" stroke="black" points="269.78,-122.62 259.76,-119.19 265.45,-128.12 269.78,-122.62"/>
<text text-anchor="middle" x="308" y="-144.8" font-family="Times,serif" font-size="14.00">d</text>
</g>
<!-- q0&#45;&gt;s1 -->
<g id="edge14" class="edge">
<title>q0&#45;&gt;s1</title>
<path fill="none" stroke="black" d="M367.88,-177.72C385.71,-163.68 414.01,-141.41 434.34,-125.41"/>
<polygon fill="black" stroke="black" points="436.55,-128.12 442.24,-119.19 432.22,-122.62 436.55,-128.12"/>
<text text-anchor="middle" x="416" y="-144.8" font-family="Times,serif" font-size="14.00">1</text>
</g>
<!-- q0&#45;&gt;se -->
<g id="edge23" class="edge">
<title>q0&#45;&gt;se</title>
<path fill="none" stroke="black" d="M324.89,-187.23C273.49,-179.29 156.1,-158.58 63,-123 61.16,-122.3 59.28,-121.54 57.4,-120.75"/>
<polygon fill="black" stroke="black" points="58.65,-117.47 48.09,-116.61 55.81,-123.87 58.65,-117.47"/>
<text text-anchor="middle" x="167.5" y="-144.8" font-family="Times,serif" font-size="14.00">e</text>
</g>
<!-- q0&#45;&gt;q0 -->
<g id="edge22" class="edge">
<title>q0&#45;&gt;q0</title>
<path fill="none" stroke="black" d="M376.44,-198.69C387.03,-199.15 396,-196.92 396,-192 396,-188.77 392.14,-186.7 386.49,-185.79"/>
<polygon fill="black" stroke="black" points="386.6,-182.29 376.44,-185.31 386.27,-189.28 386.6,-182.29"/>
<text text-anchor="middle" x="460" y="-188.3" font-family="Times,serif" font-size="14.00">0,1,a,2,b,3,c,4,d,e</text>
</g>
<!-- s0 -->
<g id="node9" class="node">
<title>s0</title>
<ellipse fill="none" stroke="black" cx="531" cy="-105" rx="27" ry="18"/>
<text text-anchor="middle" x="531" y="-101.3" font-family="Times,serif" font-size="14.00">s0</text>
</g>
<!-- q0&#45;&gt;s0 -->
<g id="edge13" class="edge">
<title>q0&#45;&gt;s0</title>
<path fill="none" stroke="black" d="M372.36,-180.92C404.16,-165.9 464.11,-137.59 500.51,-120.4"/>
<polygon fill="black" stroke="black" points="502.12,-123.51 509.67,-116.07 499.14,-117.18 502.12,-123.51"/>
<text text-anchor="middle" x="456" y="-144.8" font-family="Times,serif" font-size="14.00">0</text>
</g>
<!-- sb -->
<g id="node11" class="node">
<title>sb</title>
<ellipse fill="none" stroke="black" cx="171" cy="-105" rx="27" ry="18"/>
<text text-anchor="middle" x="171" y="-101.3" font-family="Times,serif" font-size="14.00">sb</text>
</g>
<!-- q0&#45;&gt;sb -->
<g id="edge17" class="edge">
<title>q0&#45;&gt;sb</title>
<path fill="none" stroke="black" d="M329.32,-180.94C314.33,-173.97 293.94,-164.46 276,-156 250.82,-144.13 222.3,-130.54 201.35,-120.53"/>
<polygon fill="black" stroke="black" points="202.83,-117.36 192.29,-116.2 199.81,-123.67 202.83,-117.36"/>
<text text-anchor="middle" x="281" y="-144.8" font-family="Times,serif" font-size="14.00">b</text>
</g>
<!-- s4 -->
<g id="node12" class="node">
<title>s4</title>
<ellipse fill="none" stroke="black" cx="603" cy="-105" rx="27" ry="18"/>
<text text-anchor="middle" x="603" y="-101.3" font-family="Times,serif" font-size="14.00">s4</text>
</g>
<!-- q0&#45;&gt;s4 -->
<g id="edge20" class="edge">
<title>q0&#45;&gt;s4</title>
<path fill="none" stroke="black" d="M375.69,-184.48C416.24,-173.49 499.19,-149.85 567,-123 568.83,-122.27 570.7,-121.5 572.58,-120.7"/>
<polygon fill="black" stroke="black" points="574.19,-123.81 581.88,-116.53 571.32,-117.42 574.19,-123.81"/>
<text text-anchor="middle" x="519" y="-144.8" font-family="Times,serif" font-size="14.00">4</text>
</g>
<!-- s3 -->
<g id="node13" class="node">
<title>s3</title>
<ellipse fill="none" stroke="black" cx="675" cy="-105" rx="27" ry="18"/>
<text text-anchor="middle" x="675" y="-101.3" font-family="Times,serif" font-size="14.00">s3</text>
</g>
<!-- q0&#45;&gt;s3 -->
<g id="edge18" class="edge">
<title>q0&#45;&gt;s3</title>
<path fill="none" stroke="black" d="M377.11,-187.23C428.51,-179.29 545.9,-158.58 639,-123 640.84,-122.3 642.72,-121.54 644.6,-120.75"/>
<polygon fill="black" stroke="black" points="646.19,-123.87 653.91,-116.61 643.35,-117.47 646.19,-123.87"/>
<text text-anchor="middle" x="590" y="-144.8" font-family="Times,serif" font-size="14.00">3</text>
</g>
<!-- s0&#45;&gt;dn -->
<g id="edge11" class="edge">
<title>s0&#45;&gt;dn</title>
<path fill="none" stroke="black" d="M531,-86.8C531,-75.16 531,-59.55 531,-46.24"/>
<polygon fill="black" stroke="black" points="534.5,-46.18 531,-36.18 527.5,-46.18 534.5,-46.18"/>
<text text-anchor="middle" x="536" y="-57.8" font-family="Times,serif" font-size="14.00">0</text>
</g>
<!-- dw&#45;&gt;dw -->
<g id="edge10" class="edge">
<title>dw&#45;&gt;dw</title>
<path fill="none" stroke="black" d="M195.53,-25.75C206.51,-26.49 216,-23.91 216,-18 216,-14.03 211.72,-11.56 205.57,-10.59"/>
<polygon fill="black" stroke="black" points="205.65,-7.09 195.53,-10.25 205.41,-14.09 205.65,-7.09"/>
<text text-anchor="middle" x="280" y="-14.3" font-family="Times,serif" font-size="14.00">0,1,a,2,b,3,c,4,d,e</text>
</g>
<!-- sb&#45;&gt;dw -->
<g id="edge6" class="edge">
<title>sb&#45;&gt;dw</title>
<path fill="none" stroke="black" d="M171,-86.8C171,-75.16 171,-59.55 171,-46.24"/>
<polygon fill="black" stroke="black" points="174.5,-46.18 171,-36.18 167.5,-46.18 174.5,-46.18"/>
<text text-anchor="middle" x="176" y="-57.8" font-family="Times,serif" font-size="14.00">b</text>
</g>
<!-- s4&#45;&gt;dn -->
<g id="edge3" class="edge">
<title>s4&#45;&gt;dn</title>
<path fill="none" stroke="black" d="M590.13,-88.8C579.07,-75.75 562.96,-56.74 550.35,-41.85"/>
<polygon fill="black" stroke="black" points="552.89,-39.43 543.76,-34.06 547.55,-43.96 552.89,-39.43"/>
<text text-anchor="middle" x="576" y="-57.8" font-family="Times,serif" font-size="14.00">4</text>
</g>
<!-- s3&#45;&gt;dn -->
<g id="edge2" class="edge">
<title>s3&#45;&gt;dn</title>
<path fill="none" stroke="black" d="M655.28,-92.36C630.4,-77.67 587.44,-52.31 559.12,-35.6"/>
<polygon fill="black" stroke="black" points="560.87,-32.57 550.48,-30.5 557.31,-38.6 560.87,-32.57"/>
<text text-anchor="middle" x="616" y="-57.8" font-family="Times,serif" font-size="14.00">3</text>
</g>
<!-- dn&#45;&gt;dn -->
<g id="edge4" class="edge">
<title>dn&#45;&gt;dn</title>
<path fill="none" stroke="black" d="M555.53,-25.75C566.51,-26.49 576,-23.91 576,-18 576,-14.03 571.72,-11.56 565.57,-10.59"/>
<polygon fill="black" stroke="black" points="565.65,-7.09 555.53,-10.25 565.41,-14.09 565.65,-7.09"/>
<text text-anchor="middle" x="640" y="-14.3" font-family="Times,serif" font-size="14.00">0,1,a,2,b,3,c,4,d,e</text>
</g>
</g>
</svg>
